<svg width="96" height="31" viewBox="0 0 96 31" fill="none" xmlns="http://www.w3.org/2000/svg">
<g clip-path="url(#clip0_151_41)">
<path d="M5.56969 29.2992C3.77826 28.5581 2.09639 27.5758 0.570638 26.3797L0.0250986 22.8096C-0.00683267 22.6757 -0.00831501 22.5364 0.0207608 22.4019C0.0498367 22.2674 0.108729 22.1411 0.193098 22.0324C0.269907 21.9317 0.368115 21.8493 0.480629 21.7912C0.593143 21.7331 0.717156 21.7007 0.843713 21.6964C0.987677 21.6943 1.1306 21.7211 1.26402 21.7752C1.39744 21.8293 1.51865 21.9096 1.62048 22.0114C3.48935 23.7681 5.5964 25.2528 7.87953 26.4216C10.0914 27.5423 12.1217 28.1023 13.9703 28.1016C15.3143 28.1016 16.3645 27.7867 17.1209 27.1571C17.8773 26.5275 18.2553 25.6663 18.2549 24.5737C18.2572 23.5736 17.9327 22.6002 17.3309 21.8014C16.6322 20.8813 15.7964 20.074 14.8527 19.4076C13.8164 18.6515 12.2623 17.6153 10.1904 16.2991C7.94952 14.8431 6.20635 13.562 4.96092 12.4556C3.71548 11.3493 2.83318 10.327 2.31401 9.38872C1.80126 8.47078 1.53373 7.43618 1.53725 6.38474C1.53849 5.28766 1.85959 4.21475 2.46124 3.29737C3.07653 2.33122 4.01468 1.5401 5.27569 0.923997C6.53517 0.308712 8.10317 0.000712724 9.97967 0C11.3545 0.00394643 12.7234 0.180505 14.0543 0.525533C15.4044 0.867511 16.714 1.35326 17.9606 1.97445L18.4646 5.29228C18.4962 5.4249 18.4994 5.56269 18.474 5.69663C18.4486 5.83057 18.3952 5.95764 18.3173 6.06951C18.2458 6.17081 18.1516 6.25395 18.0422 6.3123C17.9328 6.37065 17.8113 6.40257 17.6873 6.40551C17.5528 6.41145 17.4184 6.39037 17.2922 6.34352C17.1659 6.29667 17.0503 6.225 16.9523 6.13274C15.3179 4.84463 13.5338 3.75885 11.6387 2.89906C9.77659 2.05906 8.17358 1.63906 6.82968 1.63906C5.73799 1.63906 4.86984 1.89814 4.22523 2.41629C3.91523 2.65583 3.66619 2.96521 3.4984 3.31923C3.33062 3.67325 3.24883 4.06189 3.2597 4.45351C3.2597 5.51781 3.89657 6.67991 5.17031 7.9398C6.44405 9.1997 8.42537 10.6557 11.1143 12.3078C13.3262 13.6802 15.0483 14.9052 16.2806 15.9828C17.5129 17.0605 18.3809 18.0898 18.8846 19.0707C19.3939 20.0719 19.6535 21.1814 19.6412 22.3047C19.6664 23.77 19.3118 25.217 18.6118 26.5046C17.9289 27.7339 16.8989 28.7347 15.6506 29.382C14.3626 30.068 12.8364 30.4109 11.0721 30.4109C9.18239 30.408 7.31207 30.0297 5.56969 29.2982" fill="white"/>
<path d="M26.7389 29.0433C25.2425 28.1507 24.0272 26.8555 23.2316 25.3053C22.4047 23.7229 21.9917 21.9096 21.9927 19.8657C21.9752 17.8383 22.4432 15.8361 23.3577 14.0266C24.2082 12.302 25.4975 10.8317 27.0962 9.76325C28.6412 8.72405 30.4637 8.17496 32.3257 8.18772C33.8937 8.18772 35.2798 8.53089 36.4841 9.21725C37.659 9.87484 38.6322 10.8407 39.2986 12.0106C39.9631 13.1593 40.311 14.4637 40.3066 15.7908C40.3066 16.5469 40.1946 17.1069 39.9706 17.4707C39.7844 17.8049 39.4756 18.0535 39.1095 18.1641C38.649 18.275 38.1758 18.3245 37.7023 18.3114H24.4288V17.3452H38.2064L36.6097 18.0172L36.6518 17.1344C36.6492 15.8878 36.4289 14.6512 36.0007 13.4805C35.603 12.3314 34.9159 11.3043 34.0057 10.4982C33.1396 9.72572 32.0154 9.3061 30.8551 9.32217C29.7584 9.30473 28.6896 9.66839 27.8311 10.3511C26.9626 11.0375 26.2906 11.9757 25.8151 13.1655C25.3228 14.4446 25.0805 15.8063 25.1013 17.1768C25.108 18.92 25.4502 20.6457 26.1093 22.2596C26.739 23.8802 27.7556 25.3221 29.0705 26.4596C30.3568 27.5742 32.0105 28.1727 33.7123 28.1396C34.7729 28.1347 35.8221 27.9204 36.7997 27.509C37.8235 27.0881 38.7574 26.4752 39.5509 25.7033L39.9709 26.165C38.8222 27.5374 37.5899 28.5876 36.2741 29.3156C34.9084 30.0558 33.3751 30.4317 31.8218 30.4073C30.0341 30.4309 28.2748 29.9584 26.7394 29.0422" fill="white"/>
<path d="M44.5 0.798783L47.9023 0.210938V29.908H44.5V0.798783Z" fill="white"/>
<path d="M53.7891 0.798783L57.1914 0.210938V29.908H53.7891V0.798783Z" fill="white"/>
<path d="M66.2624 29.0435C64.766 28.1509 63.5506 26.8556 62.755 25.3055C61.9282 23.723 61.5152 21.9098 61.5161 19.8658C61.4986 17.8384 61.9667 15.8363 62.8812 14.0268C63.7316 12.3021 65.0209 10.8317 66.6196 9.76325C68.1646 8.72405 69.9872 8.17496 71.8491 8.18772C73.4171 8.18772 74.8033 8.53089 76.0076 9.21725C77.1825 9.87485 78.1556 10.8407 78.822 12.0106C79.4866 13.1593 79.8344 14.4637 79.83 15.7908C79.83 16.5469 79.718 17.1069 79.494 17.4707C79.3079 17.8049 78.9991 18.0535 78.6329 18.1641C78.1724 18.275 77.6992 18.3245 77.2257 18.3114H63.9521V17.3452H77.7297L76.133 18.0172L76.1751 17.1344C76.1725 15.8878 75.9522 14.6512 75.524 13.4805C75.1263 12.3314 74.4392 11.3043 73.529 10.4982C72.6629 9.72572 71.5387 9.3061 70.3784 9.32217C69.2817 9.30473 68.2129 9.66839 67.3544 10.3511C66.4859 11.0375 65.8139 11.9757 65.3384 13.1655C64.8461 14.4446 64.6038 15.8063 64.6245 17.1767C64.6313 18.92 64.9735 20.6457 65.6325 22.2596C66.2623 23.8802 67.2789 25.3221 68.5938 26.4596C69.8801 27.5742 71.5338 28.1727 73.2356 28.1396C74.2962 28.1347 75.3454 27.9204 76.3229 27.509C77.3468 27.0881 78.2807 26.4752 79.0742 25.7033L79.4942 26.165C78.3455 27.5374 77.1132 28.5876 75.7974 29.3156C74.4317 30.0558 72.8983 30.4317 71.3451 30.4073C69.5574 30.4309 67.798 29.9584 66.2627 29.0422" fill="white"/>
<path d="M84.1095 14.8306L83.4375 8.90816L86.7975 8.36201L87.5113 14.3683V29.9104H84.1095V14.8306ZM91.2502 10.0003C92.7625 8.88031 94.3446 8.32031 95.9965 8.32031V10.8403C95.9965 11.3168 95.8496 11.6737 95.5559 11.9109C95.3997 12.0318 95.22 12.1186 95.0282 12.1657C94.8365 12.2129 94.6369 12.2194 94.4425 12.1848C93.0636 12.0972 91.6819 12.3048 90.3896 12.7937C89.0486 13.3115 87.8677 14.1733 86.9656 15.2926V14.7043C88.3096 12.6883 89.7378 11.1203 91.2502 10.0003Z" fill="white"/>
</g>
<defs>
<clipPath id="clip0_151_41">
<rect width="96" height="30.4114" fill="white"/>
</clipPath>
</defs>
</svg>
