<svg width="32" height="32" viewBox="0 0 32 32" fill="none" xmlns="http://www.w3.org/2000/svg">
<path d="M25.4911 12.3H6.6511C6.48838 12.2897 6.33626 12.2157 6.22771 12.094C6.11915 11.9724 6.06288 11.8128 6.0711 11.65C6.06288 11.4872 6.11915 11.3276 6.22771 11.206C6.33626 11.0843 6.48838 11.0103 6.6511 11H25.4911C25.6538 11.0103 25.8059 11.0843 25.9145 11.206C26.0231 11.3276 26.0793 11.4872 26.0711 11.65C26.0793 11.8128 26.0231 11.9724 25.9145 12.094C25.8059 12.2157 25.6538 12.2897 25.4911 12.3Z" fill="white"/>
<path d="M20 20.5188H6.65C6.47761 20.5188 6.31228 20.4503 6.19038 20.3284C6.06848 20.2065 6 20.0411 6 19.8687C6 19.6964 6.06848 19.531 6.19038 19.4091C6.31228 19.2872 6.47761 19.2188 6.65 19.2188H20C20.1724 19.2188 20.3377 19.2872 20.4596 19.4091C20.5815 19.531 20.65 19.6964 20.65 19.8687C20.65 20.0411 20.5815 20.2065 20.4596 20.3284C20.3377 20.4503 20.1724 20.5188 20 20.5188Z" fill="white"/>
</svg>
