<svg width="32" height="32" viewBox="0 0 32 32" fill="none" xmlns="http://www.w3.org/2000/svg">
<path d="M25.9005 25.0105L20.5305 19.7105C21.9378 18.0907 22.6613 15.9878 22.5486 13.845C22.4358 11.7022 21.4956 9.68682 19.9261 8.22363C18.3566 6.76043 16.2804 5.96368 14.1349 6.00127C11.9895 6.03887 9.94244 6.90787 8.42516 8.42516C6.90787 9.94244 6.03887 11.9895 6.00127 14.1349C5.96368 16.2804 6.76043 18.3566 8.22363 19.9261C9.68682 21.4956 11.7022 22.4358 13.845 22.5486C15.9878 22.6613 18.0907 21.9378 19.7105 20.5305L25.0705 25.8405C25.1825 25.9286 25.323 25.9723 25.4653 25.9634C25.6075 25.9545 25.7414 25.8935 25.8416 25.7921C25.9417 25.6907 26.0011 25.556 26.0082 25.4137C26.0154 25.2714 25.9699 25.1314 25.8805 25.0205L25.9005 25.0105ZM14.3105 21.4205C13.362 21.4227 12.423 21.2322 11.5505 20.8605C9.85416 20.1377 8.50321 18.7868 7.78047 17.0905C7.41766 16.2173 7.23089 15.281 7.23089 14.3355C7.23089 13.3899 7.41766 12.4537 7.78047 11.5805C8.50321 9.88416 9.85416 8.53321 11.5505 7.81047C12.4251 7.4463 13.3631 7.25881 14.3105 7.25881C15.2579 7.25881 16.1959 7.4463 17.0705 7.81047C18.7668 8.53321 20.1177 9.88416 20.8405 11.5805C21.2033 12.4537 21.3901 13.3899 21.3901 14.3355C21.3901 15.281 21.2033 16.2173 20.8405 17.0905C20.1177 18.7868 18.7668 20.1377 17.0705 20.8605C16.1979 21.2322 15.2589 21.4227 14.3105 21.4205Z" fill="white"/>
</svg>
