<svg width="20" height="20" viewBox="0 0 20 20" fill="none" xmlns="http://www.w3.org/2000/svg">
<path d="M20 20.0012H0V7.78125H20V20.0012ZM0.89 19.1213H19.11V8.66125H0.89V19.1213Z" fill="black"/>
<path d="M13.5723 12.5431C13.4546 12.5432 13.3416 12.4971 13.2575 12.4149C13.1734 12.3327 13.1249 12.2208 13.1223 12.1031V4.00315C13.1228 3.59609 13.0427 3.19295 12.8865 2.81705C12.7303 2.44115 12.5011 2.09994 12.2123 1.81315C11.6242 1.23057 10.83 0.90373 10.0023 0.90373C9.17451 0.90373 8.38026 1.23057 7.79225 1.81315C7.50338 2.09994 7.27422 2.44115 7.11802 2.81705C6.96182 3.19295 6.88169 3.59609 6.88225 4.00315V12.1031C6.86623 12.2097 6.81251 12.307 6.73085 12.3773C6.64919 12.4476 6.54501 12.4863 6.43725 12.4863C6.3295 12.4863 6.22532 12.4476 6.14366 12.3773C6.06199 12.307 6.00827 12.2097 5.99225 12.1031V4.00315C5.98925 3.47643 6.09217 2.95448 6.29488 2.46832C6.49758 1.98216 6.79595 1.54171 7.17225 1.17315C7.54374 0.801241 7.9849 0.506205 8.47049 0.304908C8.95608 0.103611 9.47659 0 10.0023 0C10.5279 0 11.0484 0.103611 11.534 0.304908C12.0196 0.506205 12.4608 0.801241 12.8323 1.17315C13.2067 1.54255 13.5033 1.98338 13.7042 2.4695C13.9052 2.95562 14.0066 3.47714 14.0023 4.00315V12.1031C14.0023 12.2181 13.9573 12.3286 13.8769 12.4108C13.7966 12.493 13.6872 12.5405 13.5723 12.5431Z" fill="black"/>
</svg>
