<svg width="32" height="32" viewBox="0 0 32 32" fill="none" xmlns="http://www.w3.org/2000/svg">
<path d="M9.1211 7.14002C9.17503 7.13944 9.22852 7.14977 9.27836 7.17039C9.3282 7.19101 9.37335 7.2215 9.4111 7.26002L12.5011 10.35C12.5743 10.4286 12.6138 10.5327 12.6111 10.64C12.6108 10.7752 12.5568 10.9046 12.4611 11L11.9411 11.51L10.9411 12.51L10.3211 13.12L10.7511 13.88L10.8911 14.12V14.17C11.1511 14.72 11.5011 15.34 12.0011 16C12.5353 16.7904 13.1448 17.5272 13.8211 18.2C14.4885 18.8683 15.2185 19.4711 16.0011 20C16.6811 20.46 17.3011 20.8 17.7911 21.08L18.1011 21.25L18.8611 21.67L19.4611 21.06L21.0011 19.55C21.049 19.5001 21.1064 19.4602 21.17 19.4327C21.2335 19.4052 21.3019 19.3907 21.3711 19.39C21.4783 19.3883 21.582 19.4277 21.6611 19.5L24.7411 22.59C24.7799 22.6296 24.8105 22.6765 24.8311 22.728C24.8517 22.7795 24.8619 22.8346 24.8611 22.89C24.8555 23.0231 24.7981 23.1487 24.7011 23.24L24.0011 23.9L23.8711 24C23.5653 24.2294 23.2286 24.4146 22.8711 24.55C22.5503 24.6773 22.214 24.7614 21.8711 24.8H21.6211C21.2084 24.796 20.7968 24.7558 20.3911 24.68C19.6718 24.5454 18.9682 24.3376 18.2911 24.06C17.3031 23.6627 16.361 23.1598 15.4811 22.56C14.2979 21.7487 13.199 20.8207 12.2011 19.79C11.2891 18.8944 10.434 17.9426 9.6411 16.94C9.01015 16.1723 8.46054 15.3412 8.0011 14.46C7.29296 13.1161 7.01375 11.5875 7.2011 10.08C7.24296 9.73767 7.32693 9.40179 7.4511 9.08002C7.58108 8.72615 7.76675 8.39532 8.0011 8.10002L8.1311 7.92002L8.7611 7.30002C8.80637 7.2494 8.86187 7.20897 8.92393 7.18139C8.98599 7.1538 9.05319 7.13971 9.1211 7.14002ZM9.1211 6.00002C8.69833 6.01187 8.29673 6.18757 8.0011 6.49002L7.1311 7.37002C6.8171 7.75948 6.5642 8.19446 6.3811 8.66002C6.22072 9.07144 6.1132 9.50154 6.0611 9.94002C5.6611 13.32 7.2011 16.41 11.3911 20.6C16.3911 25.6 20.4611 25.95 21.6911 25.95H22.0611C22.5026 25.8968 22.9359 25.7893 23.3511 25.63C23.8039 25.4526 24.2283 25.21 24.6111 24.91L25.4911 24.05C25.6411 23.9005 25.7601 23.7228 25.8412 23.5272C25.9224 23.3315 25.9642 23.1218 25.9642 22.91C25.9642 22.6982 25.9224 22.4885 25.8412 22.2929C25.7601 22.0973 25.6411 21.9196 25.4911 21.77L22.4011 18.68C22.109 18.3968 21.7179 18.239 21.3111 18.24C21.0917 18.2391 20.8744 18.282 20.6717 18.3662C20.4691 18.4503 20.2853 18.574 20.1311 18.73L18.5811 20.28L18.2711 20.11C16.8939 19.4021 15.6327 18.4882 14.5311 17.4C13.4657 16.2944 12.5694 15.0375 11.8711 13.67C11.8711 13.56 11.7611 13.46 11.7111 13.37L12.7111 12.37L13.2211 11.86C13.5209 11.5584 13.6892 11.1503 13.6892 10.725C13.6892 10.2997 13.5209 9.89167 13.2211 9.59002L10.2211 6.45002C10.0764 6.30633 9.9047 6.19262 9.71594 6.1154C9.52718 6.03818 9.32504 5.99897 9.1211 6.00002Z" fill="black"/>
</svg>
